<?xml version="1.0" encoding="UTF-8"?>
<svg id="Calque_2" data-name="Calque 2" xmlns="http://www.w3.org/2000/svg" viewBox="0 0 276.23 49.3">
  <defs>
    <style>
      .cls-1 {
        fill: none;
      }

      .cls-2 {
        fill: #12120d;
      }
    </style>
  </defs>
  <g id="Calque_1-2" data-name="Calque 1">
    <g>
      <rect class="cls-1" y="5.76" width="276.23" height="41.18"/>
      <path class="cls-2" d="M3.45,7.4h16.46v3.31H7.39v10.16h11.56v3.27H7.39v13.83h-3.95V7.4Z"/>
      <path class="cls-2" d="M28.66,9.85c.05,1.36-.95,2.45-2.54,2.45-1.41,0-2.4-1.09-2.4-2.45s1.04-2.49,2.49-2.49,2.45,1.09,2.45,2.49ZM24.22,37.96v-21.95h3.99v21.95h-3.99Z"/>
      <path class="cls-2" d="M34.29,33.88c1.18.77,3.27,1.59,5.26,1.59,2.9,0,4.26-1.45,4.26-3.27,0-1.9-1.13-2.95-4.08-4.04-3.95-1.41-5.8-3.58-5.8-6.21,0-3.54,2.86-6.44,7.57-6.44,2.22,0,4.17.63,5.4,1.36l-1,2.9c-.86-.54-2.45-1.27-4.49-1.27-2.36,0-3.67,1.36-3.67,2.99,0,1.81,1.31,2.63,4.17,3.72,3.81,1.45,5.76,3.36,5.76,6.62,0,3.85-2.99,6.58-8.21,6.58-2.4,0-4.63-.59-6.17-1.5l1-3.04Z"/>
      <path class="cls-2" d="M52.79,5.76h3.99v13.7h.09c.63-1.13,1.63-2.13,2.86-2.81,1.18-.68,2.58-1.13,4.08-1.13,2.95,0,7.66,1.81,7.66,9.39v13.06h-3.99v-12.61c0-3.54-1.31-6.53-5.08-6.53-2.58,0-4.63,1.81-5.35,3.99-.23.54-.27,1.13-.27,1.9v13.24h-3.99V5.76Z"/>
      <path class="cls-2" d="M99.73,37.96l-.32-2.77h-.14c-1.22,1.72-3.58,3.27-6.71,3.27-4.44,0-6.71-3.13-6.71-6.3,0-5.31,4.72-8.21,13.2-8.16v-.45c0-1.81-.5-5.08-4.99-5.08-2.04,0-4.17.63-5.71,1.63l-.91-2.63c1.81-1.18,4.44-1.95,7.21-1.95,6.71,0,8.34,4.58,8.34,8.98v8.21c0,1.9.09,3.76.36,5.26h-3.63ZM99.14,26.76c-4.35-.09-9.3.68-9.3,4.94,0,2.58,1.72,3.81,3.76,3.81,2.86,0,4.67-1.81,5.31-3.67.14-.41.23-.86.23-1.27v-3.81Z"/>
      <path class="cls-2" d="M109.44,21.95c0-2.27-.05-4.13-.18-5.94h3.54l.23,3.63h.09c1.09-2.09,3.63-4.13,7.26-4.13,3.04,0,7.75,1.81,7.75,9.34v13.11h-3.99v-12.65c0-3.54-1.31-6.48-5.08-6.48-2.63,0-4.67,1.86-5.35,4.08-.18.5-.27,1.18-.27,1.86v13.2h-3.99v-16.01Z"/>
      <path class="cls-2" d="M153.57,5.76v26.53c0,1.95.05,4.17.18,5.67h-3.58l-.18-3.81h-.09c-1.22,2.45-3.9,4.31-7.48,4.31-5.31,0-9.39-4.49-9.39-11.16-.05-7.3,4.49-11.79,9.84-11.79,3.36,0,5.62,1.59,6.62,3.36h.09V5.76h3.99ZM149.58,24.95c0-.5-.05-1.18-.18-1.68-.59-2.54-2.77-4.63-5.76-4.63-4.13,0-6.58,3.63-6.58,8.48,0,4.44,2.18,8.12,6.48,8.12,2.68,0,5.12-1.77,5.85-4.76.14-.54.18-1.09.18-1.72v-3.81Z"/>
      <path class="cls-2" d="M185.45,37.15c-1.04.54-3.36,1.27-6.3,1.27-6.62,0-10.93-4.49-10.93-11.2s4.63-11.65,11.79-11.65c2.36,0,4.44.59,5.53,1.13l-.91,3.08c-.95-.54-2.45-1.04-4.63-1.04-5.03,0-7.75,3.72-7.75,8.3,0,5.08,3.27,8.21,7.62,8.21,2.27,0,3.76-.59,4.9-1.09l.68,2.99Z"/>
      <path class="cls-2" d="M190.12,5.76h3.99v13.7h.09c.63-1.13,1.63-2.13,2.86-2.81,1.18-.68,2.58-1.13,4.08-1.13,2.95,0,7.66,1.81,7.66,9.39v13.06h-3.99v-12.61c0-3.54-1.31-6.53-5.08-6.53-2.58,0-4.63,1.81-5.35,3.99-.23.54-.27,1.13-.27,1.9v13.24h-3.99V5.76Z"/>
      <path class="cls-2" d="M219.74,9.85c.05,1.36-.95,2.45-2.54,2.45-1.41,0-2.4-1.09-2.4-2.45s1.04-2.49,2.49-2.49,2.45,1.09,2.45,2.49ZM215.29,37.96v-21.95h3.99v21.95h-3.99Z"/>
      <path class="cls-2" d="M225.91,23.18c0-2.81-.09-5.08-.18-7.17h3.58l.18,3.76h.09c1.63-2.68,4.22-4.26,7.8-4.26,5.31,0,9.3,4.49,9.3,11.16,0,7.89-4.81,11.79-9.98,11.79-2.9,0-5.44-1.27-6.76-3.45h-.09v11.93h-3.95v-23.76ZM229.85,29.03c0,.59.09,1.13.18,1.63.73,2.77,3.13,4.67,5.99,4.67,4.22,0,6.67-3.45,6.67-8.48,0-4.4-2.31-8.16-6.53-8.16-2.72,0-5.26,1.95-6.03,4.94-.14.5-.27,1.09-.27,1.63v3.76Z"/>
      <path class="cls-2" d="M251.17,33.88c1.18.77,3.26,1.59,5.26,1.59,2.9,0,4.26-1.45,4.26-3.27,0-1.9-1.13-2.95-4.08-4.04-3.95-1.41-5.8-3.58-5.8-6.21,0-3.54,2.86-6.44,7.57-6.44,2.22,0,4.17.63,5.4,1.36l-1,2.9c-.86-.54-2.45-1.27-4.49-1.27-2.36,0-3.67,1.36-3.67,2.99,0,1.81,1.32,2.63,4.17,3.72,3.81,1.45,5.76,3.36,5.76,6.62,0,3.85-2.99,6.58-8.21,6.58-2.4,0-4.63-.59-6.17-1.5l1-3.04Z"/>
    </g>
  </g>
</svg>